<svg xmlns="http://www.w3.org/2000/svg" viewBox="0 0 1620.26 1200">
  <title>bg-movies</title>
  <g style="isolation: isolate">
    <path d="M1186.24,373.53c-.27-.88-1.23-1.07-2.43-.49l-5.75,3a2.81,2.81,0,0,0-1.67,2.65l.29,1.3c.1.43.19.86.3,1.29s.19.86.28,1.28.19.84.28,1.26l0,.18c0,.06,0,.12,0,.18s0,.12,0,.17l0,.17c.23.78,1.16.92,2.36.34l5.78-3c1.18-.66,1.88-1.64,1.76-2.49,0-.06,0-.11,0-.18s0-.12,0-.17a1.42,1.42,0,0,0,0-.17c0-.07,0-.12,0-.18-.09-.42-.19-.84-.29-1.26s-.19-.86-.29-1.28l-.3-1.28c-.1-.43-.2-.87-.31-1.31m2.83,12.79c-.21-.74-1.14-.83-2.34-.24l-5.81,3c-1.18.66-1.89,1.6-1.8,2.41.08.43.16.85.24,1.27s.15.82.23,1.23.15.83.22,1.23.14.81.21,1.21c.19.69,1.08.75,2.28.17l5.86-3c1.21-.67,1.93-1.59,1.87-2.33-.07-.4-.14-.79-.22-1.21s-.15-.81-.23-1.21l-.24-1.24c-.08-.42-.16-.84-.25-1.25m2,11c-.16-.65-1.06-.68-2.28-.09l-5.88,3.06c-1.19.66-1.95,1.55-1.91,2.26l.15,1.1.14,1.09c0,.36.09.71.13,1.07s.08.7.12,1.05c.13.6,1,.6,2.22,0l5.92-3.06c1.24-.68,2-1.51,2-2.18,0-.34-.09-.7-.14-1.05s-.09-.7-.15-1.06l-.15-1.09c-.05-.36-.11-.73-.17-1.09m1.18,9.6c-.12-.55-1-.51-2.22.09l-5.95,3.07c-1.21.66-2,1.48-2,2.1l.07,1c0,.31,0,.63.06.94s0,.62,0,.92,0,.61,0,.92c.09.52.92.46,2.16-.16l6-3.09c1.26-.68,2.06-1.46,2.1-2,0-.3,0-.6-.06-.91s0-.61-.06-.92,0-.63-.07-.93-.06-.64-.09-1m.44,8.29c-.07-.47-.92-.37-2.17.24l-6,3.1c-1.23.65-2.07,1.43-2.13,2,0,.28,0,.55,0,.82s0,.54,0,.81,0,.53,0,.79,0,.52,0,.78c0,.44.85.32,2.11-.29l6.08-3.12c1.28-.68,2.12-1.41,2.2-1.91,0-.26,0-.52,0-.78s0-.52,0-.79,0-.53,0-.8,0-.54,0-.82m-.26,7.08c0-.39-.86-.25-2.12.38l-6.11,3.12c-1.25.67-2.13,1.39-2.24,1.86l-.08.69c0,.23-.06.46-.1.69s-.07.44-.1.67-.07.45-.11.66a.56.56,0,0,1,0,.07c.12.11.43.29,2-.52l6.17-3.15a5.2,5.2,0,0,0,2.3-1.8c0-.21.07-.43.09-.65s.07-.44.09-.66.06-.45.08-.68,0-.46.07-.69m-.94,5.94s0-.07,0-.1-.42-.2-2.06.62l-6.19,3.16a6.16,6.16,0,0,0-2.35,1.74c0,.21-.1.4-.15.59s-.11.38-.17.57-.11.37-.17.56-.12.36-.18.55a.32.32,0,0,0,0,.09c.1,0,.37.15,2-.66l6.26-3.19a7,7,0,0,0,2.42-1.69c.06-.17.11-.36.16-.54l.15-.55c.05-.19.1-.37.15-.56s.1-.38.14-.58m-1.59,4.9a.36.36,0,0,0,0-.08c-.1,0-.38-.11-2,.72l-6.29,3.2a8.88,8.88,0,0,0-2.46,1.65c-.07.17-.15.32-.22.48s-.16.31-.23.46l-.24.45-.25.44,0,.09a5.7,5.7,0,0,0,2-.78l6.35-3.24A10.13,10.13,0,0,0,1189,435l.23-.43c.07-.15.15-.3.22-.45s.14-.29.21-.46l.21-.46m-2.2,3.93a.42.42,0,0,1-.07-.07,11.5,11.5,0,0,0-1.94.83l-6.39,3.26a12.92,12.92,0,0,0-2.57,1.56l-.29.38-.3.37-.3.36-.31.35,0,0a12.79,12.79,0,0,0,1.91-.85l6.46-3.28a16.88,16.88,0,0,0,2.62-1.53l.29-.35a3.68,3.68,0,0,0,.28-.35l.28-.36.27-.37m-2.78,3.06c-.12,0-.24,0-2,.88l-6.49,3.31a25.43,25.43,0,0,0-2.67,1.48l-.35.29a3.79,3.79,0,0,1-.36.28l-.36.28-.37.26a11.85,11.85,0,0,0,1.93-.92l6.57-3.33a28.45,28.45,0,0,0,2.72-1.45l.35-.26.35-.26.34-.28.33-.28m-3.32,2.28c-.66.3-1.31.65-2,1l-6.6,3.36c-.93.47-1.85.94-2.77,1.42l-.09.06-.1,0-.09,0-.1.05,11.36-5.77.09,0,.09-.05.09,0,.1,0M1172.39,431c3.72-2,5.67-3.7,6.12-5.24.14-2.43.16-5.08.06-7.95s-.34-5.93-.71-9.26-.86-6.85-1.51-10.66-1.42-7.83-2.35-12.16c-.29-1.34-.59-2.7-.9-4.09s-.63-2.78-1-4.19-.65-2.82-1-4.24-.64-2.83-1-4.23l-75.35,39.93c.23,1.42.47,2.84.72,4.27s.49,2.85.74,4.26l.72,4.22c.23,1.39.45,2.77.66,4.12.67,4.37,1.17,8.47,1.53,12.31s.55,7.5.61,10.88,0,6.59-.27,9.55a71.72,71.72,0,0,1-1.11,8.32c.08.2.19.48.26.68,1.08.3,2.23,0,4.94-1.3L1172.39,431m5.39,1.17c-.11-.15-.25-.34-.35-.5-1.48,0-2.1.06-5.32,1.61l-69.05,35.35c-3.5,1.91-5.59,3.55-6.39,5a40.34,40.34,0,0,1-3.12,7.05,34,34,0,0,1-4.11,5.79,33.62,33.62,0,0,1-5,4.65,38.66,38.66,0,0,1-5.92,3.67q43.65-22.17,87.28-44.34a21.29,21.29,0,0,0,4.23-2.83,20,20,0,0,0,3.44-3.89,25.05,25.05,0,0,0,2.62-5.11,36.86,36.86,0,0,0,1.74-6.48m-85.24-9.3c-.21-.89-1.08-1.11-2.22-.55l-5.45,2.88a2.92,2.92,0,0,0-1.68,2.6c.07.44.13.88.21,1.32s.14.87.2,1.29.13.87.2,1.29.12.86.18,1.28l0,.18c0,.06,0,.12,0,.18l0,.18c0,.06,0,.12,0,.12.18.86,1,1,2.15.47l5.49-2.88a2.92,2.92,0,0,0,1.76-2.46,1.59,1.59,0,0,0,0-.18l0-.12,0-.24,0-.18c-.07-.42-.13-.84-.2-1.27s-.13-.85-.2-1.29l-.21-1.3-.21-1.32m1.85,12.94c-.15-.75-1-.88-2.13-.32l-5.51,2.88a3.06,3.06,0,0,0-1.81,2.38c0,.43.09.85.13,1.28s.08.84.12,1.26.08.83.11,1.25.06.82.1,1.23c.11.71.92.8,2.06.25l5.55-2.89a3.13,3.13,0,0,0,1.88-2.31c0-.4-.07-.82-.11-1.22s-.08-.83-.12-1.24-.09-.84-.13-1.26-.09-.85-.14-1.28m.91,11.26c-.09-.68-.9-.74-2-.18l-5.58,2.9a3.31,3.31,0,0,0-1.93,2.23c0,.38,0,.75,0,1.13s0,.75,0,1.12,0,.74,0,1.1,0,.72,0,1.08c.06.62.81.66,2,.09l5.61-2.9c1.18-.65,1.94-1.48,2-2.16,0-.36,0-.72,0-1.09s0-.72,0-1.1,0-.74,0-1.11,0-.74,0-1.12m0,9.93c0-.59-.81-.59-2,0l-5.64,2.91c-1.15.63-2,1.45-2.05,2.1,0,.33,0,.66-.06,1s0,.65-.07,1l-.08,1c0,.32-.06.64-.09,1,0,.54.74.52,1.91,0l5.67-2.93c1.2-.64,2-1.42,2.12-2,0-.32.05-.63.08-.95s0-.64.06-1,0-.65.05-1,0-.65,0-1m-.8,8.69c0-.5-.73-.45-1.91.13l-5.7,2.94a4.4,4.4,0,0,0-2.17,2c0,.3-.09.58-.14.88s-.1.57-.16.86-.11.56-.16.84l-.18.83c0,.47.66.4,1.85-.18l5.75-2.95a4.72,4.72,0,0,0,2.24-1.92c.06-.27.1-.54.16-.82s.1-.56.15-.84.09-.56.14-.85.09-.57.13-.87m-1.59,7.57c.07-.42-.66-.32-1.85.26l-5.78,3a5.27,5.27,0,0,0-2.28,1.86l-.23.75c-.08.25-.16.5-.25.74s-.16.49-.25.73l-.26.72a.43.43,0,0,0,0,.18c.13.05.39.18,1.77-.5l5.83-3a6.05,6.05,0,0,0,2.35-1.8l.25-.72.23-.73c.08-.24.15-.48.23-.74s.15-.5.21-.75m-2.36,6.52,0-.11c-.07-.07-.27-.26-1.81.5l-5.86,3a7.15,7.15,0,0,0-2.39,1.75c-.1.22-.21.44-.32.65s-.21.42-.32.63-.22.43-.33.63l-.35.62a.64.64,0,0,1,0,.11c.06.06.22.22,1.76-.54l5.91-3a8.1,8.1,0,0,0,2.47-1.7c.1-.2.22-.41.32-.61l.32-.62c.1-.21.21-.41.31-.63s.2-.42.29-.64m-3.09,5.56,0-.1c-.12-.06-.3-.14-1.77.59l-5.94,3a9.67,9.67,0,0,0-2.51,1.66l-.39.55-.4.54-.41.53-.41.51,0,.09c.1,0,.25.1,1.73-.64l6-3.05a12.16,12.16,0,0,0,2.57-1.61l.4-.52.39-.51c.13-.18.25-.37.38-.54l.37-.54m-3.8,4.66.05-.07c-.1,0-.25-.06-1.75.69l-6,3.07a15.76,15.76,0,0,0-2.62,1.57l-.47.46-.47.45-.48.45-.49.43a.38.38,0,0,0-.06.07c.08,0,.2,0,1.69-.72l6.09-3.1a20,20,0,0,0,2.68-1.54l.48-.42.46-.44.46-.44.45-.46m-4.47,3.88.07-.06a7.05,7.05,0,0,0-1.72.77l-6.12,3.11c-1.21.62-2.33,1.24-2.73,1.51l-.54.38-.54.37-.55.36-.56.36-.07,0a10.86,10.86,0,0,0,1.68-.8l6.18-3.15c.94-.47,1.89-.93,2.79-1.48l.54-.34.53-.36.53-.36.52-.38m-5.11,3.18.08,0c-.57.26-1.14.57-1.69.85l-6.23,3.16-2.83,1.45-.15.08-.14.07-.14.07-.14.08,10.69-5.43.14-.08.14-.07.14-.08.14-.07m114.44-137.79,1,4.22,1,4.23c.34,1.41.68,2.81,1,4.19s.65,2.74,1,4.08a236,236,0,0,1,4.76,26.5,85.2,85.2,0,0,1,.35,18.57,29.73,29.73,0,0,1-3.56,12,16.87,16.87,0,0,1-7,6.62c-33.8,16.51-108.73,54.59-129.32,65.72a40.66,40.66,0,0,0,12.05-9.07,40.06,40.06,0,0,0,7.95-13.86,69.81,69.81,0,0,0,3.39-19.89,153.23,153.23,0,0,0-1.65-27.2q-.28-2-.6-4.12t-.66-4.23q-.34-2.13-.68-4.26t-.66-4.27l4.41-2.33c0,.29.09.59.14.89s.1.6.14.89.1.6.14.9.1.6.14.9l.47.73c1.15.17,1.15.17,7.15-3a3.25,3.25,0,0,0,1.68-2.31c-.06-.64-.11-.94-.16-1.24s-.1-.59-.15-.89-.1-.6-.15-.9-.1-.6-.15-.89l83.13-44.06c.06.3.13.58.2.88s.13.59.2.89.13.59.2.88.14.59.21.9c1,1.28,1,1.28,8.13-2.49a3.15,3.15,0,0,0,1.7-2.35c-.11-.64-.18-.93-.25-1.23s-.14-.6-.21-.89l-.22-.88c-.07-.3-.14-.6-.21-.89l5.09-2.69" transform="translate(270.93 -359.24)" fill="#4c1900"/>
    <path d="M1057.77,505.33l129.33-65.71a16.89,16.89,0,0,0,7-6.62,29.74,29.74,0,0,0,3.57-12,85.19,85.19,0,0,0-.35-18.58,234.23,234.23,0,0,0-4.76-26.49c-.31-1.34-.63-2.69-1-4.08s-.67-2.78-1-4.19l-1-4.23c-.34-1.41-.68-2.83-1-4.22L1076.9,418.42q.32,2.13.67,4.27t.68,4.27q.34,2.13.66,4.23t.61,4.12a154,154,0,0,1,1.65,27.2,69.7,69.7,0,0,1-3.39,19.89,39.85,39.85,0,0,1-7.95,13.87A40.53,40.53,0,0,1,1057.77,505.33Z" transform="translate(270.93 -359.24)" fill="none"/>
    <path d="M1117.88,451.17c.78-.4,1.56-.79,2.32-1.24h0l-.62.26-.61.28-.61.3-.6.31-14.33,7.37.63-.32.64-.3.64-.29.64-.28c1.24-.55,2.44-1.18,3.65-1.8l8.27-4.27m5.77-2.51c-.57.21-2.25,1-3.64,1.74l-8.22,4.23a17.64,17.64,0,0,0-2.26,1.26h.09l.7-.23.7-.2.7-.2.71-.18a33.76,33.76,0,0,0,3.61-1.66l8.1-4.17a14,14,0,0,0,2.26-1.31l-.08,0-.68.17-.67.18-.67.19-.67.2m6.31-1.46a26,26,0,0,0-3.6,1.6l-8,4.14a8.7,8.7,0,0,0-2.18,1.3l.1,0,.72-.13.72-.11.73-.11.72-.1a21.19,21.19,0,0,0,3.57-1.55l7.92-4.07a7.87,7.87,0,0,0,2.19-1.34l-.09,0-.69.08-.69.09-.69.11-.69.1m6.44-.71a17.58,17.58,0,0,0-3.54,1.5l-7.86,4c-1.85,1-2,1.2-2.13,1.32l.1,0,.73-.06.73-.05.73-.05.72,0a15.4,15.4,0,0,0,3.51-1.45l7.75-4c1.84-1,2-1.23,2.14-1.35l-.09-.06-.7,0-.69,0-.7,0-.69,0m6.46-.18a14.51,14.51,0,0,0-3.48,1.41l-7.69,3.94c-1.8.94-2,1.2-2.07,1.32l.1.06.72,0,.72,0h1.43a13.64,13.64,0,0,0,3.44-1.38l7.58-3.88c1.8-.94,2-1.21,2.09-1.34l-.09-.06h-1.38l-.69,0h-.69m6.38.12a13.44,13.44,0,0,0-3.41,1.36l-7.53,3.85c-1.77.92-1.94,1.18-2,1.31l.1.07h2.8a13.38,13.38,0,0,0,3.36-1.33l7.42-3.79c1.77-.92,2-1.19,2-1.32l-.09-.07-.67,0-.67,0h-.67l-.68,0m6.08.24A15.12,15.12,0,0,0,1152,448l-7.37,3.76c-1.73.9-1.93,1.17-2,1.29l.08.06h2.52a13.23,13.23,0,0,0,3.22-1.3l7.28-3.72c1.74-.89,2-1.16,2.05-1.28a.25.25,0,0,1-.07-.07l-.59,0-.6,0-.61,0-.6,0m5.53.19a15,15,0,0,0-3.2,1.3l-7.23,3.69c-1.7.87-1.91,1.14-2,1.24l.07.06h2.39a16.56,16.56,0,0,0,3.15-1.3l7.14-3.63c1.7-.88,1.93-1.14,2-1.25l-.06-.06H1162l-.57,0h-.58m5.23,0a17,17,0,0,0-3.11,1.31l-7.09,3.61c-1.66.86-1.88,1.1-2,1.21l.07,0,.57,0,.56,0,.56,0,.56,0a17.73,17.73,0,0,0,3.06-1.3l7-3.57a8.15,8.15,0,0,0,2-1.2l-.05,0-.53,0-.53,0-.54,0h-.54m4.89-.28a20.34,20.34,0,0,0-3,1.31l-7,3.54a10.09,10.09,0,0,0-2,1.15l.05,0,.52-.07.52-.07.52-.07.51-.08a23.8,23.8,0,0,0,3-1.32l6.87-3.5a13,13,0,0,0,2-1.13l0,0-.49.07-.5.06-.5.06-.5.05m4.5-.69a30.71,30.71,0,0,0-2.93,1.34l-6.83,3.47a13.05,13.05,0,0,0-2,1.1h0l.48-.11.48-.12.47-.13.47-.13c.44-.16,1.41-.62,2.87-1.36l6.76-3.43c1.93-1,1.94-1,2-1.1l-.44.12-.45.12-.45.11-.46.1m3.88-1c.59-.3,1.21-.55,1.78-.91l-.39.19-.4.17-.4.17-.41.16c-1,.42-1.89.91-2.83,1.39l-6.71,3.41-1.55.8c-.12.07-.3,0-.37.23l.43-.18.42-.17.42-.19.42-.2,2.59-1.31,7-3.56m-54.72,14.17c3.87-2,4.31-2.42,5.46-3.44l-.23-.29c-2.66,0-5.33.07-8,.22s-5.4.4-8,.78a58.8,58.8,0,0,0-7.95,1.7,42.73,42.73,0,0,0-7.61,3L989,517.3a82.72,82.72,0,0,1,10.26-4.39,106.79,106.79,0,0,1,10.53-3.11c3.5-.85,7-1.56,10.58-2.18s7-1.12,10.43-1.59c1.78-.47,3.8-1,9.67-3.92l84.11-43m11.61-3.71c-2,.34-5.13,1.59-9.31,3.7l-83.52,42.7a27,27,0,0,0-4.36,2.6c0,.18.08.42.12.59l.12,0,.11,0h.23c3.51-.44,7-.86,10.32-1.34s6.53-1,9.64-1.57,6-1.26,8.84-2.06a63.16,63.16,0,0,0,7.93-2.83c.81-.37,1.91-.89,7.9-3.93l74.83-38c4.66-2.37,4.7-2.4,5.25-2.75a32.26,32.26,0,0,1-5.87,1.75,56.2,56.2,0,0,1-6.65.89c-2.35.18-4.81.27-7.33.3s-5.21,0-7.89,0h-.35M984.75,519.7a21.24,21.24,0,0,0,1.92-1l-.17.06-.9.41-.89.43-.89.44-.89.45-13.27,6.83.92-.47.92-.45.92-.44.93-.43c1.26-.59,2.5-1.22,3.74-1.86l7.67-3.94m6.83-3.07c-.79.31-2.45,1.12-3.74,1.79l-7.62,3.92a15,15,0,0,0-1.83,1l.17,0c.33-.13.66-.26,1-.37l1-.37c.34-.12.67-.24,1-.34s.67-.24,1-.35c.72-.26,2.14-.92,3.71-1.72l7.52-3.86a9.11,9.11,0,0,0,1.85-1.08.6.6,0,0,0-.18,0l-1,.33-1,.34-1,.35-1,.36m9.06-2.94a29.14,29.14,0,0,0-3.69,1.66l-7.47,3.84a9.79,9.79,0,0,0-1.77,1,.36.36,0,0,0,.19,0l1-.28,1-.28,1-.26,1-.26a26.74,26.74,0,0,0,3.68-1.6l7.37-3.78c1.57-.81,1.71-1,1.8-1.1a.66.66,0,0,0-.2,0l-1,.25-1,.26-1,.25-1,.27m9.15-2.2a21.87,21.87,0,0,0-3.65,1.57l-7.32,3.76a6.51,6.51,0,0,0-1.72,1.05.35.35,0,0,0,.19.05l1-.22,1-.21,1-.2,1-.2a20.33,20.33,0,0,0,3.61-1.51l7.22-3.7c1.53-.8,1.67-1,1.75-1.1a.45.45,0,0,0-.19,0l-1,.19-1,.19-1,.19-1,.19m9.09-1.65a18.75,18.75,0,0,0-3.58,1.48l-7.17,3.68c-1.5.79-1.63,1-1.7,1.09a.43.43,0,0,0,.21,0l1-.17,1-.17,1-.16,1-.15a18.49,18.49,0,0,0,3.54-1.44l7.08-3.63c1.5-.78,1.64-1,1.72-1.11a.37.37,0,0,0-.19,0l-1,.14-1,.15-1,.15-1,.15m8.95-1.3a16.47,16.47,0,0,0-3.51,1.42l-7,3.59c-1.48.78-1.59,1-1.67,1.08a.45.45,0,0,0,.21,0l1-.14,1-.13,1-.15,1-.14a16.67,16.67,0,0,0,3.46-1.39l6.94-3.55c1.47-.76,1.61-1,1.68-1.09a.35.35,0,0,0-.18,0l-.94.12-.93.12-.94.13-.95.13m8.51-1.12a17.38,17.38,0,0,0-3.36,1.38l-6.89,3.52c-1.45.75-1.61,1-1.69,1.06a.22.22,0,0,0,.16.05l.87-.12.87-.12.86-.13.86-.12a16.18,16.18,0,0,0,3.31-1.36l6.81-3.48c1.45-.75,1.61-1,1.71-1.07a.29.29,0,0,0-.15-.05l-.84.11-.84.12-.85.11-.85.11m7.76-1a16.78,16.78,0,0,0-3.27,1.36l-6.77,3.45c-1.42.74-1.58.93-1.67,1a.26.26,0,0,0,.15,0l.84-.12.83-.14.82-.14.82-.13a17.94,17.94,0,0,0,3.23-1.35l6.69-3.41c1.43-.73,1.6-.93,1.7-1l-.14,0-.8.12-.8.12-.81.12-.81.12m7.39-1.17a19.75,19.75,0,0,0-3.19,1.35l-6.65,3.39a5.77,5.77,0,0,0-1.66,1l.14,0,.79-.15.79-.15.78-.16.77-.16a19.61,19.61,0,0,0,3.14-1.36l6.57-3.34a6.62,6.62,0,0,0,1.69-1l-.12,0-.75.15-.76.15-.76.14-.77.14m6.95-1.4a21.09,21.09,0,0,0-3.09,1.36l-6.54,3.32a7.41,7.41,0,0,0-1.66,1l.12,0,.74-.18.73-.19.73-.18.73-.19a25,25,0,0,0,3-1.37l6.46-3.28a10,10,0,0,0,1.68-1l-.1,0-.7.19-.71.17-.71.18-.72.17m6.48-1.75c-.5.18-1.71.73-3,1.38l-6.42,3.26a9.5,9.5,0,0,0-1.65.94h.1l.69-.22.68-.23.67-.24.67-.24c.54-.19,1.92-.88,2.94-1.4l6.35-3.23a15,15,0,0,0,1.68-.9h-.08l-.65.23-.65.23-.66.21-.66.21m6.9-2.53,1.51-.77-.06,0-.59.28-.6.28-.6.27-.61.27c-1,.44-1.94.93-2.9,1.42l-6.32,3.21c-.55.28-1.12.55-1.65.88l.06,0c.24-.09.44-.18.65-.28s.42-.18.62-.28l.61-.28c.2-.11.4-.2.61-.3l2.67-1.35,6.6-3.35m115.66-58.73-129.38,65.69a63,63,0,0,1-8.79,3.6,102.52,102.52,0,0,1-9.91,2.67c-3.51.78-7.16,1.45-10.91,2.07s-7.75,1.2-11.75,1.78c-4.31.63-8.68,1.28-13.08,2s-9,1.59-13.49,2.6A136.79,136.79,0,0,0,976.6,525a94.39,94.39,0,0,0-13.25,5.54l161.86-83.33a36.5,36.5,0,0,1,8.49-3,55.33,55.33,0,0,1,8.92-1.23c3-.19,6-.19,9-.11s5.88.24,8.77.4c2.68.15,5.31.3,7.86.37s4.92.08,7.23-.05a41.48,41.48,0,0,0,6.44-.82,23.57,23.57,0,0,0,5.54-1.92" transform="translate(270.93 -359.24)" fill="#4c2304"/>
    <path d="M1125.21,447.2,963.35,530.53A96.73,96.73,0,0,1,976.59,525a139.34,139.34,0,0,1,13.56-3.76c4.48-1,9-1.86,13.48-2.61s8.77-1.37,13.08-2c4-.58,7.92-1.16,11.75-1.78s7.39-1.29,10.9-2.06a102.7,102.7,0,0,0,9.91-2.68,63,63,0,0,0,8.79-3.6l129.38-65.69a23.57,23.57,0,0,1-5.54,1.92,41.48,41.48,0,0,1-6.44.82c-2.31.13-4.73.12-7.23.05s-5.18-.22-7.86-.37c-2.89-.16-5.83-.32-8.77-.4s-6-.08-9,.11a55.33,55.33,0,0,0-8.92,1.23A36.5,36.5,0,0,0,1125.21,447.2Z" transform="translate(270.93 -359.24)" fill="none"/>
    <path d="M1113.46,451.51l3.36-1.73L1102.74,457c.78-.39,1.56-.79,2.33-1.19l8.39-4.33m.33.06a11.33,11.33,0,0,0-2.38,1.13l-8.46,4.35c-.49.25-3,1.54-3.68,2l-.64.44-.64.45-.63.48c-.21.16-.42.32-.62.5l-.07.07a9.21,9.21,0,0,0,2.45-1.1l8.57-4.42a37.09,37.09,0,0,0,3.69-2.1l.59-.48.6-.45c.2-.16.4-.3.61-.44l.61-.42m-5.44,4.62.05-.09c-.17,0-.41,0-2.57,1.08l-8.64,4.45a22.82,22.82,0,0,0-3.68,2.19c-.2.2-.39.41-.58.62l-.57.64c-.19.22-.38.43-.56.66s-.37.45-.56.67l-.05.11c.15,0,.44.11,2.58-1l8.77-4.5a16.93,16.93,0,0,0,3.68-2.33c.17-.23.34-.44.52-.67l.53-.64.54-.62.55-.59m-4.74,6.4,0-.13c-.1-.07-.37-.24-2.7.94l-8.82,4.53a13.3,13.3,0,0,0-3.66,2.44c-.17.27-.33.54-.49.83s-.32.56-.48.84l-.47.88c-.16.29-.31.59-.46.9,0,.05,0,.11,0,.16s.4.35,2.72-.81l9-4.58a11,11,0,0,0,3.64-2.61l.43-.87c.14-.3.29-.58.44-.86l.45-.84.46-.81m-3.84,8.53a.49.49,0,0,0,0-.25c-.21-.08-.65-.25-2.81.82l-9,4.62a9.38,9.38,0,0,0-3.61,2.72c-.13.35-.26.71-.38,1.07s-.25.72-.37,1.09-.24.75-.36,1.13-.23.77-.35,1.15a.66.66,0,0,0,0,.3c.21.11.69.36,2.85-.7l9.14-4.66c1.89-1,3.3-2.13,3.58-2.9.1-.39.21-.77.31-1.14s.21-.74.32-1.11l.34-1.08q.17-.54.35-1.06m-2.74,11c0-.75-1.13-.63-3,.31l-9.19,4.69c-1.93,1-3.28,2.18-3.54,3-.09.44-.17.89-.25,1.35s-.16.91-.24,1.38-.15.93-.22,1.41-.15,1-.21,1.44c0,.86,1.19.8,3.1-.12l9.31-4.73c1.93-1,3.3-2.28,3.5-3.23l.17-1.43c.06-.47.13-.94.19-1.41s.13-.91.21-1.37.14-.89.22-1.33m-1.42,13.74c-.05-.94-1.3-.94-3.27,0l-9.38,4.74c-2,1-3.28,2.34-3.44,3.39,0,.55-.07,1.1-.1,1.66s-.05,1.12-.08,1.7,0,1.14-.06,1.73,0,1.17,0,1.77c.08,1.05,1.38,1.14,3.33.22l9.49-4.77c2-1,3.29-2.47,3.39-3.61,0-.59,0-1.18,0-1.76s0-1.16,0-1.73,0-1.13,0-1.68,0-1.11.06-1.65m.13,16.84c-.17-1.16-1.52-1.29-3.52-.34l-9.55,4.79c-2,1-3.26,2.52-3.32,3.76,0,.66.05,1.34.09,2s.07,1.36.1,2.05.08,1.39.13,2.1.09,1.41.15,2.13c.2,1.27,1.61,1.5,3.6.58l9.67-4.81c2-1.06,3.26-2.63,3.25-4-.06-.71-.12-1.43-.18-2.13s-.1-1.4-.15-2.09-.09-1.37-.14-2-.08-1.35-.12-2m1.9,20.26c-.28-1.39-1.74-1.67-3.79-.73l-9.72,4.81c-2,1.06-3.23,2.7-3.16,4.18,0,.34.08.68.12,1s.08.68.13,1,.08.7.13,1,.09.7.14,1.05c.07.53.14,1.05.21,1.59l.22,1.59c.08.54.16,1.08.23,1.63s.16,1.08.24,1.64c.37,1.72,1.91,2.25,3.94,1.36l9.83-4.82a5.14,5.14,0,0,0,3-4.79c-.09-.54-.17-1.09-.25-1.63s-.17-1.07-.25-1.62-.16-1.07-.24-1.6-.15-1.06-.23-1.57l-.15-1c0-.36-.09-.7-.14-1.05l-.14-1c0-.34-.09-.68-.14-1m4.43,26.76c-.49-1.9-2.09-2.52-4.18-1.61l-9.89,4.82a5.1,5.1,0,0,0-2.89,5c.2,1.06.41,2.13.62,3.22s.43,2.17.65,3.27.45,2.23.69,3.34.48,2.26.72,3.4c.56,2,2.25,2.8,4.33,1.92l10-4.81a5.11,5.11,0,0,0,2.76-5.36c-.25-1.14-.51-2.28-.75-3.41s-.49-2.23-.71-3.33-.46-2.2-.68-3.29-.44-2.16-.65-3.23M1109.4,592a3.13,3.13,0,0,0-4.57-2.18l-10,4.8a5.11,5.11,0,0,0-2.61,5.59c.12.47.24,1,.36,1.44s.24,1,.36,1.45.24,1,.37,1.46.25,1,.37,1.47c.22.87.44,1.75.67,2.62s.45,1.74.68,2.61.46,1.72.69,2.59l.7,2.57c.81,2.49,2.7,3.54,4.82,2.69l10.15-4.76c2.08-1.13,3-3.46,2.38-6.09-.24-.85-.48-1.73-.72-2.58s-.48-1.73-.71-2.6l-.7-2.61q-.35-1.31-.69-2.63c-.13-.49-.26-1-.38-1.47s-.25-1-.38-1.47-.24-1-.37-1.45-.24-1-.37-1.44m10.9,38c-.9-2.38-2.86-3.36-5-2.51l-10.18,4.74a4.92,4.92,0,0,0-2.28,5.86c.43,1.33.86,2.65,1.29,4s.88,2.62,1.32,3.93.88,2.6,1.33,3.89.9,2.58,1.36,3.85a3.75,3.75,0,0,0,5.06,2.35l10.23-4.69a4.62,4.62,0,0,0,2.21-5.69c-.46-1.29-.92-2.57-1.37-3.87s-.9-2.6-1.35-3.91-.89-2.61-1.33-3.94-.88-2.65-1.31-4m12.92,35.65a3.89,3.89,0,0,0-5.2-2.21l-10.24,4.65a4.33,4.33,0,0,0-2.1,5.5c.49,1.22,1,2.43,1.48,3.64s1,2.42,1.49,3.61l1.51,3.58c.51,1.2,1,2.37,1.53,3.55a4,4,0,0,0,5.24,2.07l10.25-4.58a4.06,4.06,0,0,0,2.06-5.34l-1.53-3.57-1.51-3.6c-.5-1.21-1-2.41-1.5-3.63l-1.48-3.66m14.34,32.93a4.12,4.12,0,0,0-5.34-2L1132,701.11a3.86,3.86,0,0,0-1.94,5.19l1.61,3.37c.54,1.12,1.08,2.24,1.63,3.35s1.09,2.23,1.64,3.34,1.09,2.2,1.64,3.3a4.18,4.18,0,0,0,5.35,1.87l10.21-4.45a3.72,3.72,0,0,0,1.93-5.06l-1.63-3.33c-.54-1.11-1.09-2.23-1.63-3.35s-1.08-2.25-1.62-3.38-1.07-2.25-1.61-3.39m15.33,30.85a4.28,4.28,0,0,0-5.42-1.81L1147.3,732a3.53,3.53,0,0,0-1.82,4.93l1.7,3.2,1.72,3.19,1.72,3.18,1.73,3.17a4.35,4.35,0,0,0,5.4,1.79l10.14-4.32a3.47,3.47,0,0,0,1.82-4.88L1168,739l-1.7-3.21c-.57-1.06-1.13-2.14-1.7-3.21l-1.69-3.23m16,29.7a4.39,4.39,0,0,0-5.44-1.8l-10.1,4.27a3.36,3.36,0,0,0-1.73,4.8l1.77,3.13,1.77,3.14,1.77,3.13,1.78,3.15a4.45,4.45,0,0,0,5.42,1.84l10-4.17a3.38,3.38,0,0,0,1.74-4.84l-1.76-3.18q-.89-1.58-1.76-3.17l-1.76-3.16-1.74-3.17M1194,786.41c-1-1.55-3-2-5.1-1.27l-10,4.13c-2,.92-2.79,2.56-2,4.19l1.47,2.61,1.48,2.62c.49.88,1,1.75,1.48,2.64l1.49,2.65c1,1.57,3,2.1,5.08,1.35l10-4.05c2-.92,2.81-2.6,2-4.26l-1.46-2.67-1.47-2.66-1.46-2.64-1.47-2.64m13.69,25a4.12,4.12,0,0,0-5.11-1.45l-9.93,4c-2,.91-2.75,2.59-1.94,4.29l1.49,2.74,1.51,2.76,1.5,2.79,1.5,2.8a4.11,4.11,0,0,0,5.08,1.57l9.87-3.94c2-.9,2.77-2.63,2-4.39l-1.5-2.82L1210.7,817l-1.49-2.78-1.48-2.76M1221.64,838a4.1,4.1,0,0,0-5.11-1.71l-9.85,3.9c-2,.89-2.71,2.63-1.89,4.45l1.52,2.95,1.52,3c.51,1,1,2,1.52,3s1,2,1.53,3a4.11,4.11,0,0,0,5.07,1.86l9.81-3.83a3.35,3.35,0,0,0,1.92-4.61l-1.51-3.06-1.51-3-1.51-3-1.51-3m14.12,28.81a4.09,4.09,0,0,0-5.11-2l-9.79,3.78a3.37,3.37,0,0,0-1.85,4.71l1.54,3.24,1.54,3.28,1.54,3.33c.52,1.11,1,2.23,1.55,3.36a4.16,4.16,0,0,0,5.09,2.27L1240,885a3.59,3.59,0,0,0,1.87-4.93c-.51-1.14-1-2.27-1.54-3.39s-1-2.22-1.54-3.34l-1.53-3.3c-.51-1.09-1-2.19-1.53-3.26m14.39,31.95a4.19,4.19,0,0,0-5.13-2.46l-9.76,3.67c-2,.87-2.67,2.85-1.82,5.06l1.57,3.64,1.57,3.7,1.58,3.75q.79,1.88,1.58,3.78c1.06,2.29,3.07,3.37,5.12,2.76l9.76-3.61c2-.87,2.69-3,1.84-5.34q-.79-1.93-1.58-3.82l-1.57-3.76-1.57-3.71-1.57-3.66m14.75,36.08c-1.07-2.44-3.1-3.63-5.18-3l-9.77,3.57c-1.94.85-2.64,3-1.78,5.55.27.7.54,1.41.82,2.12s.54,1.41.82,2.12.54,1.42.82,2.14l.82,2.15.65,1.74c.22.57.44,1.15.66,1.73l.65,1.74.65,1.75a3.9,3.9,0,0,0,4.84,2.49l9.79-3.5a3.84,3.84,0,0,0,2.13-5c-.22-.59-.44-1.17-.65-1.76l-.66-1.74c-.22-.59-.44-1.17-.66-1.75l-.66-1.74-.83-2.16-.83-2.15-.82-2.13-.83-2.12m12.8,34.74a3.9,3.9,0,0,0-4.85-2.59l-9.81,3.48a3.94,3.94,0,0,0-2.14,5.06c.42,1.21.83,2.42,1.24,3.64s.83,2.44,1.24,3.67l1.23,3.67,1.21,3.69c.84,2.22,2.7,3.28,4.75,2.69l9.86-3.44a4,4,0,0,0,2.25-5.13l-1.23-3.71c-.41-1.24-.82-2.47-1.24-3.7s-.83-2.45-1.25-3.67-.83-2.45-1.26-3.67m11.31,34.73c-.81-2.26-2.68-3.36-4.76-2.76l-9.89,3.41a4.13,4.13,0,0,0-2.3,5.16l1.14,3.8c.38,1.26.75,2.54,1.13,3.82s.74,2.54,1.11,3.83.74,2.56,1.1,3.85c.77,2.3,2.6,3.43,4.67,2.85l10-3.36a4.26,4.26,0,0,0,2.4-5.26q-.55-1.94-1.13-3.86l-1.13-3.84c-.38-1.28-.76-2.56-1.15-3.83s-.77-2.54-1.15-3.8m10.35,36.1c-.75-2.36-2.59-3.51-4.71-2.94l-10,3.35c-2,.8-3,2.88-2.45,5.3.35,1.32.69,2.63,1,3.94s.68,2.64,1,4,.67,2.65,1,4,.66,2.66,1,4c.71,2.42,2.51,3.61,4.61,3.06l10.11-3.3c2.07-.81,3.07-2.94,2.56-5.43-.34-1.33-.68-2.67-1-4s-.68-2.66-1-4-.69-2.65-1-4l-1.05-4m9.38,37.48c-.69-2.45-2.51-3.67-4.65-3.11l-10.17,3.28c-2,.79-3.08,2.93-2.63,5.44l.92,4.1c.3,1.37.6,2.74.9,4.12s.59,2.77.89,4.14.59,2.76.87,4.15c.64,2.49,2.42,3.75,4.55,3.21l10.31-3.25c2.11-.81,3.19-3,2.74-5.54-.3-1.39-.61-2.78-.91-4.16s-.61-2.78-.92-4.15l-.93-4.13-1-4.12m8.1,37.6a3.52,3.52,0,0,0-4.51-2.82l-10.37,3.24a4.56,4.56,0,0,0-2.92,5.12c.24,1.26.48,2.54.71,3.81s.47,2.55.7,3.82.46,2.57.69,3.84.45,2.57.68,3.85c.52,2.3,2.25,3.44,4.42,2.9l10.51-3.21a4.64,4.64,0,0,0,3-5.2c-.24-1.3-.48-2.57-.72-3.86s-.49-2.57-.73-3.85-.49-2.55-.74-3.82-.5-2.55-.75-3.82m6.58,36c-.51-2.35-2.27-3.52-4.49-3l-10.59,3.2a4.82,4.82,0,0,0-3.1,5.26q.31,2,.61,3.93t.59,3.93l.58,4c.19,1.32.38,2.65.56,4,.46,2.38,2.18,3.58,4.39,3.06l10.77-3.18a4.9,4.9,0,0,0,3.22-5.33c-.21-1.32-.42-2.65-.61-4s-.42-2.64-.63-4-.43-2.64-.64-4-.43-2.62-.65-3.94m5.56,37c-.27-1.46-1.21-3.78-4.44-2.88l-10.86,3.17a4.61,4.61,0,0,0-3.35,5.13l.46,3.82c.15,1.27.3,2.54.44,3.82l.43,3.81c.14,1.26.28,2.54.41,3.8a3.31,3.31,0,0,0,4.34,2.89l11-3.15a5,5,0,0,0,3.48-5.15c-.16-1.27-.31-2.54-.47-3.82s-.32-2.54-.48-3.81-.33-2.55-.49-3.82l-.51-3.83m4.21,35.46c-.35-2.27-2.08-3.38-4.4-2.84l-11.14,3.14a5.08,5.08,0,0,0-3.58,5.08c.11,1.26.22,2.52.33,3.78s.21,2.52.31,3.78.2,2.52.3,3.78.2,2.52.29,3.77c.28,2.25,2,3.37,4.29,2.84l11.34-3.13a5.12,5.12,0,0,0,3.72-5.07l-.34-3.77c-.12-1.25-.24-2.52-.36-3.78s-.24-2.51-.37-3.78-.25-2.52-.38-3.79m3,35c-.28-2.23-2-3.33-4.38-2.8l-11.44,3.12a5.3,5.3,0,0,0-3.84,5c.07,1.24.13,2.48.19,3.73s.12,2.5.18,3.73.11,2.48.16,3.72.1,2.49.15,3.72c.2,2.24,1.84,3.31,4.26,2.78l11.66-3.11a5.26,5.26,0,0,0,4-5c-.07-1.25-.13-2.48-.21-3.72s-.15-2.47-.22-3.72-.16-2.48-.24-3.73-.16-2.49-.25-3.74m1.77,34.51c-.2-2.2-1.91-3.28-4.36-2.76l-11.78,3.11a5.53,5.53,0,0,0-4.1,5q0,1.83,0,3.66c0,1.21,0,2.43,0,3.65s0,2.43,0,3.64,0,2.43,0,3.63c.12,2.16,1.78,3.22,4.23,2.71l12-3.09a5.56,5.56,0,0,0,4.25-4.91c0-1.21,0-2.42-.07-3.64s-.05-2.42-.08-3.65-.06-2.44-.1-3.66-.07-2.44-.11-3.66m.43,33.75c-.11-2.14-1.81-3.18-4.33-2.65l-12.14,3.09a5.8,5.8,0,0,0-4.39,4.85c0,1.19-.07,2.38-.11,3.56s-.08,2.38-.12,3.56-.09,2.37-.15,3.54-.1,2.35-.16,3.53c0,2.13,1.63,3.13,4.2,2.6l12.4-3.09c2.58-.75,4.37-2.62,4.56-4.79,0-1.17.06-2.35.09-3.53s0-2.36.07-3.55,0-2.37.05-3.56,0-2.38,0-3.57m-1,32.75c0-2.06-1.71-3.06-4.3-2.52l-12.54,3.08a6.15,6.15,0,0,0-4.7,4.71l-.28,3.44c-.1,1.15-.2,2.29-.29,3.43s-.21,2.28-.32,3.41-.22,2.27-.34,3.4c-.08,2,1.56,3,4.16,2.47l12.8-3.08c2.67-.74,4.58-2.57,4.88-4.66.09-1.13.17-2.27.26-3.4s.16-2.27.24-3.41.15-2.27.22-3.43.14-2.29.21-3.44m-2.61,31.41c.09-2-1.59-2.89-4.27-2.35l-12.95,3.08c-2.65.73-4.63,2.51-5,4.54q-.22,1.65-.45,3.28c-.16,1.09-.32,2.18-.48,3.26s-.33,2.16-.5,3.24-.35,2.15-.52,3.22c-.19,1.93,1.39,2.8,4.11,2.25l13.23-3.07c2.77-.73,4.82-2.49,5.23-4.45q.23-1.6.44-3.21c.15-1.07.28-2.15.42-3.24s.27-2.17.4-3.27.26-2.17.38-3.27m-4.33,29.65c.2-1.84-1.45-2.68-4.22-2.13l-13.39,3.08c-2.74.72-4.86,2.42-5.4,4.32-.22,1-.43,2.06-.66,3.06l-.68,3c-.24,1-.46,2-.7,3s-.48,2-.73,3c-.31,1.79,1.24,2.54,4.05,2l13.69-3.09c2.91-.74,5.06-2.35,5.61-4.19.21-1,.43-2,.64-3s.42-2,.62-3,.4-2,.6-3,.39-2,.58-3.06m-6.22,27.37c.33-1.67-1.31-2.41-4.16-1.86l-13.85,3.1c-2.84.71-5.12,2.3-5.79,4-.29.94-.58,1.86-.87,2.78l-.9,2.74c-.31.9-.61,1.81-.92,2.71s-.63,1.79-1,2.67c-.44,1.58,1.08,2.22,4,1.66l14.16-3.1c3-.74,5.33-2.21,6-3.87.29-.88.58-1.77.86-2.66s.56-1.79.84-2.71.55-1.81.81-2.73.53-1.84.79-2.77m-8.3,24.41c.46-1.46-1.15-2-4.1-1.46l-14.33,3.11c-2.94.71-5.38,2.15-6.2,3.68-.37.81-.73,1.62-1.11,2.41s-.75,1.6-1.14,2.38-.77,1.56-1.17,2.33-.79,1.54-1.19,2.29c-.59,1.35.91,1.82,3.89,1.24l14.66-3.12c3.14-.73,5.61-2.06,6.45-3.47.37-.75.74-1.51,1.1-2.29s.72-1.54,1.08-2.33.7-1.57,1-2.37.68-1.6,1-2.41m-241-996c5.16-2.73,8.57-5,10.14-6.6a37.75,37.75,0,0,1,2.82-3.31,37.14,37.14,0,0,1,3-2.8,36.65,36.65,0,0,1,3.19-2.35,38.51,38.51,0,0,1,3.33-1.94l-109.3,56.32q-2.32,1.2-4.56,2.57c-1.5.92-3,1.91-4.42,3s-2.87,2.2-4.25,3.41-2.74,2.5-4.05,3.87l.74.56a30.26,30.26,0,0,0,5.06-2.18L1075,476.75m5.63.84-.41-.74c-1.39.2-2.49.36-6.87,2.56l-99,50.79c-3.47,1.82-8.07,4.53-10.22,7.11a73.48,73.48,0,0,0-6.86,12.85,98.69,98.69,0,0,0-5.1,16.22,140.4,140.4,0,0,0-2.93,20.06,206.15,206.15,0,0,0-.37,24.31c.06,1.66.15,3.36.25,5.07s.22,3.47.36,5.25.29,3.58.46,5.41.37,3.69.58,5.59c.86,5.14,5.06,7.19,10.2,5L1071,583.71c5.49-3,8.57-8.51,7.86-14.11-.34-1.9-.67-3.77-1-5.61s-.6-3.65-.87-5.42-.53-3.53-.77-5.25-.46-3.4-.67-5.05c-1.11-8.77-1.75-16.75-2-24a162.48,162.48,0,0,1,.43-19.47,98.52,98.52,0,0,1,2.49-15.39,61.44,61.44,0,0,1,4.19-11.8m4.72,122.77c-2.14-6.21-6-8-12.14-5.8L962.41,647.79c-5.58,3.37-7.88,8-7.25,14.68.13.7.27,1.39.4,2.1s.27,1.41.41,2.11.28,1.42.42,2.13.29,1.43.44,2.15a364.62,364.62,0,0,0,13.06,47.33,375.53,375.53,0,0,0,17.57,41.76c6.44,13.1,13.38,25.48,20.68,37.61s14.77,23.7,22.51,35.57c5.72,7.18,11.4,5.37,14.45,4.4l111.13-46.1c8.2-3.81,6.07-10.2,4.77-12.77-7.2-12.65-14.24-25.14-21.07-37.89s-13.54-26-19.85-39.75-12.32-28.24-17.83-43.58-10.45-31.4-14.79-48.58c-.18-.73-.37-1.47-.55-2.19s-.36-1.45-.53-2.16l-.53-2.15c-.17-.71-.34-1.42-.51-2.12m89.58,202.87c-4.37-6-10.65-4.79-14-3.57l-110.83,45.67c-5.11,2.37-6.87,6.63-4.47,10.85,6.06,9.39,12.19,19.07,18.35,29.29s12.23,20.8,18.35,32.25,12.15,23.54,18.18,36.75,12,27.41,18,43c.5,1.31,1,2.61,1.49,3.94s1,2.63,1.46,4,1,2.66,1.43,4,.94,2.67,1.41,4c2.33,5.86,7.08,8.54,12.38,7l109-38.52c5.37-2.23,7.73-7.81,5.89-13.86l-1.49-4.13c-.5-1.38-1-2.75-1.51-4.12s-1-2.73-1.52-4.09-1-2.72-1.53-4.07c-6.17-16.19-12.22-31-18.18-44.73s-11.91-26.52-17.75-38.47-11.71-23.31-17.45-34-11.54-21.13-17.19-31.13m87.61,197.61c-2.67-6.38-6.93-8.81-13-7.42l-109.3,38.24c-5.32,2.57-7.18,6.89-5.85,13.59q3.68,12.78,6.91,25.93t6,26.79q2.8,13.65,5.13,27.64t4.19,28.49q1.22,9.5,2.21,19.13t1.77,19.49q.77,9.88,1.3,19.87t.82,20.25c0,.61,0,1.2,0,1.8s0,1.21,0,1.81,0,1.19,0,1.8,0,1.2,0,1.8c.73,6.59,3.94,9.16,10.08,8.08l121.61-34.88a13.7,13.7,0,0,0,9.49-14.12c-.07-.61-.14-1.21-.21-1.82s-.14-1.21-.21-1.82-.14-1.22-.21-1.83-.15-1.22-.22-1.82q-1.24-10.3-2.66-20.49t-3-20.14q-1.58-9.94-3.32-19.78T1290.6,1112q-2.86-14.63-6.08-29t-6.72-28.19q-3.5-13.86-7.33-27.39t-7.93-26.6m44.87,232.33c-1.67-8.86-8.06-8.76-11.73-7.92L1173,1260c-3.36,1.14-9.16,4.44-10.21,13.71-.38,15.91-1.24,31.54-2.59,46.81-1.38,15.65-3.27,30.94-5.66,45.77-2.45,15.23-5.43,30-8.95,44.17a429.72,429.72,0,0,1-12.52,41.75c-1.68,7,3.67,7.35,8.45,6.42l146.08-33.7c7.71-2,13.33-6.69,14.67-12.15,2.36-13.21,4.19-27.23,5.53-41.87,1.3-14.24,2.13-29.08,2.5-44.41q.54-22.38-.23-46.11-.75-23.09-2.71-47.24M978.56,521l3.37-1.74-13,6.72,1.89-1,7.76-4m-1.21.85.16-.12a11.23,11.23,0,0,0-2,1l-7.82,4c-1.78.92-3.15,1.66-3.77,2l-.95.6L962,530l-.93.62-.94.64-.16.14c.11,0,.26,0,2-.89l7.93-4.08c1.87-1,3.24-1.78,3.78-2.14l.9-.62.91-.61.92-.6.92-.57m-8.33,6a.94.94,0,0,0,.14-.16c-.14,0-.31,0-2.09.87l-8,4.11a31.52,31.52,0,0,0-3.76,2.23c-.3.25-.59.5-.89.76s-.59.52-.88.78l-.87.8-.86.82a1.17,1.17,0,0,0-.13.19c.14,0,.33.11,2.11-.79l8.08-4.15a21.14,21.14,0,0,0,3.76-2.36l.83-.8.84-.79.85-.76.86-.75m-7.63,7.74a.89.89,0,0,0,.11-.22c-.16-.07-.39-.17-2.2.75l-8.14,4.19a16.41,16.41,0,0,0-3.73,2.45l-.8,1-.79,1c-.26.33-.52.67-.77,1s-.51.67-.77,1a.8.8,0,0,0-.1.26c.09.09.29.31,2.23-.65l8.24-4.22a13.37,13.37,0,0,0,3.7-2.61l.74-1,.74-1,.76-1c.25-.31.51-.64.77-.94m-6.72,9.72a.85.85,0,0,0,.07-.29c-.11-.12-.36-.37-2.33.6l-8.29,4.25a11.1,11.1,0,0,0-3.67,2.72c-.23.4-.46.79-.69,1.19l-.67,1.21c-.22.42-.44.83-.66,1.24s-.44.84-.65,1.27a.43.43,0,0,0,0,.4c.2.11.56.31,2.34-.57l8.4-4.28a9.78,9.78,0,0,0,3.63-2.88l.62-1.26c.21-.41.42-.83.63-1.23l.65-1.2.66-1.18m-5.57,12c.23-.82-.72-.8-2.47.06l-8.45,4.3a8.77,8.77,0,0,0-3.59,3c-.19.48-.37,1-.54,1.45s-.36,1-.53,1.48l-.52,1.5c-.16.51-.33,1-.49,1.54-.21.91.78,1,2.52.12l8.55-4.34c1.77-1,3.16-2.2,3.54-3.2.16-.51.31-1,.47-1.53s.32-1,.49-1.5.33-1,.5-1.47.34-1,.52-1.43M944.91,572c.13-1-.89-1.09-2.68-.23l-8.6,4.35c-1.81,1-3.14,2.24-3.47,3.32-.13.58-.26,1.16-.38,1.74s-.24,1.18-.36,1.78-.24,1.19-.35,1.8-.22,1.22-.33,1.84c-.1,1.09,1,1.26,2.76.43l8.69-4.38c1.8-.95,3.14-2.34,3.41-3.53.09-.62.2-1.22.3-1.83s.21-1.2.32-1.8.22-1.19.34-1.77.23-1.16.35-1.73m-2.54,17.46c0-1.19-1.11-1.4-2.93-.55l-8.75,4.38c-1.8,1-3.1,2.41-3.32,3.68-.07.68-.13,1.37-.19,2.06s-.11,1.39-.17,2.1-.1,1.42-.15,2.13-.09,1.44-.12,2.18c0,1.29,1.21,1.59,3,.76l8.84-4.4c1.82-1,3.1-2.49,3.24-3.89,0-.73.06-1.45.1-2.17s.08-1.42.12-2.13.09-1.41.14-2.1.1-1.38.17-2.06m-.65,20.6c-.11-1.4-1.35-1.76-3.2-.91l-8.89,4.41a5.46,5.46,0,0,0-3.14,4c0,.34,0,.69,0,1s0,.69,0,1,0,.7,0,1.05,0,.69,0,1.05c0,.53,0,1.06,0,1.59s0,1.06.06,1.61,0,1.07.06,1.62,0,1.09.08,1.64c.19,1.73,1.5,2.31,3.35,1.51l9-4.41a5.47,5.47,0,0,0,3-4.64c0-.55-.06-1.09-.09-1.64S942,618,942,617.42s0-1.07-.07-1.6,0-1.06-.06-1.59c0-.36,0-.71,0-1.06s0-.7,0-1.06,0-.7,0-1,0-.69,0-1m1.81,26.77c-.31-1.9-1.68-2.57-3.59-1.74l-9,4.4a5.32,5.32,0,0,0-2.86,4.87q.16,1.58.35,3.19c.12,1.08.24,2.17.38,3.26s.28,2.19.42,3.31.3,2.23.46,3.35c.39,2,1.85,2.82,3.75,2l9.12-4.38a5.25,5.25,0,0,0,2.72-5.16q-.25-1.69-.48-3.36c-.15-1.1-.3-2.21-.44-3.31s-.28-2.18-.41-3.26-.26-2.14-.38-3.2m4.91,31.9c-.52-2.2-2.06-3.07-4-2.26l-9.16,4.37a5.14,5.14,0,0,0-2.55,5.38c.08.46.17.94.25,1.41s.19.94.28,1.43.18.94.28,1.43.19,1,.28,1.43c.17.88.34,1.72.52,2.57s.35,1.7.53,2.54l.55,2.52c.19.84.37,1.68.56,2.52.66,2.43,2.34,3.48,4.27,2.71l9.25-4.34c1.9-1,2.78-3.26,2.29-5.82-.2-.84-.39-1.67-.58-2.52s-.37-1.68-.56-2.53l-.55-2.55c-.18-.85-.35-1.71-.52-2.57-.1-.48-.2-1-.29-1.44s-.19-1-.29-1.43l-.28-1.42c-.09-.48-.18-1-.27-1.42m8.91,36.93c-.79-2.3-2.56-3.28-4.51-2.52l-9.27,4.32a4.76,4.76,0,0,0-2.12,5.58q.56,1.91,1.14,3.82c.39,1.26.79,2.53,1.19,3.78s.81,2.5,1.22,3.74.83,2.47,1.26,3.7c.86,2.17,2.68,3.08,4.64,2.32l9.32-4.27a4.37,4.37,0,0,0,2-5.37c-.43-1.23-.85-2.47-1.26-3.71s-.83-2.5-1.23-3.75-.81-2.53-1.2-3.8-.78-2.54-1.16-3.83m12.08,34.14a3.67,3.67,0,0,0-4.84-2.16l-9.33,4.23a4,4,0,0,0-1.81,5.16c.47,1.16,1,2.31,1.44,3.45s1,2.29,1.48,3.42,1,2.27,1.51,3.39l1.53,3.35a3.83,3.83,0,0,0,4.94,2l9.34-4.17a3.68,3.68,0,0,0,1.72-5q-.77-1.67-1.53-3.37c-.5-1.13-1-2.27-1.51-3.4s-1-2.29-1.48-3.44-1-2.31-1.45-3.47m14.47,31.08a4,4,0,0,0-5.07-1.9l-9.33,4.14a3.45,3.45,0,0,0-1.56,4.82q.83,1.59,1.67,3.16c.56,1.05,1.12,2.09,1.69,3.13s1.13,2.08,1.71,3.11,1.15,2.07,1.73,3.09a4.16,4.16,0,0,0,5.13,1.78l9.31-4.05a3.25,3.25,0,0,0,1.5-4.69l-1.72-3.11-1.7-3.13c-.57-1.06-1.13-2.1-1.69-3.16s-1.12-2.12-1.67-3.18m16.2,28.77a4.26,4.26,0,0,0-5.22-1.71l-9.29,4a3.08,3.08,0,0,0-1.38,4.55c.61,1,1.22,2,1.83,3l1.84,3c.61,1,1.23,2,1.85,2.94l1.87,2.95a4.43,4.43,0,0,0,5.23,1.68l9.25-3.95a3,3,0,0,0,1.36-4.5c-.62-1-1.24-2-1.85-3s-1.23-2-1.84-3l-1.83-3c-.61-1-1.22-2-1.81-3m17.32,27.5a4.5,4.5,0,0,0-5.29-1.66l-9.23,3.89a2.89,2.89,0,0,0-1.26,4.42l1.92,2.9,1.93,2.9,1.93,2.91,1.94,2.91a4.59,4.59,0,0,0,5.3,1.72l9.17-3.82a2.9,2.9,0,0,0,1.25-4.45l-1.92-2.93-1.92-2.93-1.91-2.92-1.9-2.93M1034,852.36a4.18,4.18,0,0,0-4.94-1.19l-9.15,3.78c-1.82.84-2.43,2.36-1.55,3.86l1.61,2.42,1.61,2.43,1.61,2.45,1.61,2.44a4.19,4.19,0,0,0,4.92,1.27l9.1-3.71c1.84-.84,2.45-2.38,1.58-3.93-.54-.82-1.07-1.65-1.61-2.47l-1.6-2.46-1.6-2.44-1.59-2.44m14.92,23.15a4.18,4.18,0,0,0-4.94-1.35l-9.08,3.67c-1.81.84-2.4,2.39-1.51,4l1.62,2.55,1.62,2.57,1.62,2.59,1.62,2.6a4.14,4.14,0,0,0,4.9,1.48l9-3.6c1.82-.83,2.43-2.43,1.55-4.07l-1.62-2.62-1.61-2.61c-.54-.87-1.07-1.73-1.61-2.59l-1.61-2.58m15,24.73a4.1,4.1,0,0,0-4.92-1.62l-9,3.58a2.81,2.81,0,0,0-1.49,4.14c.54.91,1.08,1.83,1.61,2.76l1.62,2.78c.54.93,1.07,1.87,1.61,2.81s1.07,1.89,1.61,2.85a4.1,4.1,0,0,0,4.87,1.77l9-3.5a3,3,0,0,0,1.54-4.3l-1.61-2.86c-.53-1-1.07-1.9-1.6-2.84l-1.61-2.8c-.53-.94-1.07-1.86-1.61-2.78m14.92,27a4.05,4.05,0,0,0-4.88-1.94l-9,3.47a3,3,0,0,0-1.5,4.39l1.6,3.06,1.6,3.1,1.59,3.13q.8,1.57,1.6,3.18a4.08,4.08,0,0,0,4.85,2.18l9-3.41c1.81-.8,2.41-2.62,1.54-4.63l-1.59-3.19-1.59-3.15-1.59-3.11c-.53-1-1.06-2.05-1.6-3.08m14.78,30.21a4.06,4.06,0,0,0-4.86-2.38l-9,3.37c-1.78.79-2.38,2.66-1.52,4.76l1.58,3.46,1.57,3.51q.79,1.77,1.58,3.56c.52,1.19,1,2.4,1.57,3.61,1,2.18,2.93,3.23,4.81,2.66l9-3.31c1.81-.8,2.43-2.78,1.56-5l-1.57-3.63-1.58-3.58c-.52-1.18-1-2.37-1.57-3.52l-1.58-3.48m14.6,34.38c-1-2.34-2.93-3.5-4.85-2.93l-9,3.27c-1.78.78-2.38,2.85-1.54,5.25l.8,2c.26.68.53,1.35.79,2l.79,2.06.79,2.07.63,1.66.62,1.66.62,1.67.61,1.68c.85,2,2.61,3,4.47,2.44l9-3.22a3.63,3.63,0,0,0,1.91-4.75l-.62-1.68-.62-1.68-.63-1.67c-.21-.56-.42-1.11-.63-1.66l-.79-2.08-.8-2.06-.79-2-.8-2m12.09,33.34c-.8-2.11-2.54-3.11-4.45-2.56l-9,3.19c-1.8.76-2.57,2.65-2,4.81.38,1.17.76,2.34,1.13,3.51s.75,2.36,1.12,3.53.74,2.37,1.1,3.56.73,2.37,1.08,3.57c.75,2.13,2.44,3.18,4.32,2.64l9-3.14c1.85-.76,2.68-2.69,2.11-4.9-.36-1.2-.73-2.39-1.09-3.58s-.74-2.38-1.12-3.57-.75-2.37-1.13-3.55l-1.15-3.53m10,33.55c-.69-2.21-2.37-3.28-4.29-2.74l-9.07,3.12c-1.82.75-2.68,2.69-2.18,4.95.32,1.22.64,2.45,1,3.68s.63,2.46.95,3.7l.92,3.71c.31,1.25.61,2.49.91,3.74.63,2.24,2.27,3.36,4.16,2.84l9.13-3.08c1.87-.76,2.78-2.74,2.32-5.05-.3-1.25-.61-2.5-.92-3.74s-.63-2.49-.94-3.73-.64-2.48-1-3.71-.65-2.46-1-3.69m8.41,35.06c-.59-2.3-2.22-3.44-4.15-2.93l-9.17,3.07c-1.88.75-2.8,2.71-2.41,5.09q.4,1.92.78,3.85c.26,1.28.52,2.57.77,3.86l.74,3.88q.37,2,.72,3.9c.53,2.35,2.11,3.55,4,3.05l9.26-3c1.9-.75,2.9-2.8,2.54-5.22q-.38-2-.76-3.91c-.25-1.29-.51-2.59-.76-3.88l-.79-3.87-.81-3.86m6.79,36.58c-.49-2.39-2.06-3.61-4-3.12l-9.31,3c-1.87.73-2.92,2.79-2.65,5.24q.32,2,.61,4c.2,1.34.39,2.69.58,4s.37,2.7.56,4.06.36,2.71.54,4.06c.42,2.45,1.94,3.71,3.88,3.23l9.42-3c1.93-.75,3-2.85,2.8-5.36l-.57-4.07c-.19-1.36-.4-2.72-.6-4.06s-.4-2.7-.61-4-.42-2.69-.63-4m5,36.83c-.35-2.22-1.85-3.34-3.83-2.85l-9.48,3a4.79,4.79,0,0,0-2.95,4.95c.13,1.24.25,2.48.37,3.74s.24,2.5.35,3.75.23,2.51.34,3.76.22,2.52.32,3.78c.28,2.26,1.74,3.42,3.71,2.93l9.6-2.94a4.92,4.92,0,0,0,3.08-5c-.11-1.26-.23-2.52-.35-3.78s-.24-2.51-.37-3.77-.26-2.52-.38-3.76-.27-2.5-.41-3.75m3.08,35.4c-.25-2.31-1.72-3.5-3.73-3l-9.66,2.92a5.13,5.13,0,0,0-3.19,5.08c.07,1.29.14,2.59.2,3.87s.12,2.58.18,3.88.11,2.59.16,3.9.1,2.6.15,3.91c.18,2.34,1.59,3.55,3.6,3.08l9.81-2.89a5.29,5.29,0,0,0,3.34-5.16q-.09-2-.18-3.92c-.07-1.3-.13-2.6-.2-3.9s-.15-2.59-.23-3.88-.16-2.59-.24-3.88M1155,1239c-.09-1.44-.68-3.74-3.62-2.93l-9.88,2.89a5,5,0,0,0-3.46,5c0,1.26,0,2.51,0,3.76s0,2.51,0,3.77,0,2.5,0,3.76,0,2.51,0,3.76c.08,2.25,1.45,3.41,3.49,2.95l10-2.86a5.45,5.45,0,0,0,3.61-5c0-1.26,0-2.51,0-3.76s0-2.51,0-3.78,0-2.51,0-3.77,0-2.51-.06-3.78m-.15,35c-.05-2.25-1.44-3.38-3.53-2.9l-10.12,2.85a5.61,5.61,0,0,0-3.72,4.93c0,1.25-.1,2.5-.16,3.75s-.11,2.48-.17,3.73-.13,2.49-.2,3.73-.14,2.49-.21,3.73c0,2.22,1.31,3.36,3.4,2.89l10.28-2.83a5.7,5.7,0,0,0,3.88-4.92q.09-1.87.17-3.74c.05-1.24.1-2.49.15-3.73s.09-2.49.13-3.74.08-2.5.11-3.74m-1.74,34.64c.06-2.22-1.29-3.34-3.44-2.87l-10.37,2.83a5.94,5.94,0,0,0-4,4.87q-.16,1.85-.33,3.69c-.11,1.23-.23,2.46-.35,3.69s-.24,2.46-.37,3.68-.26,2.45-.39,3.68c-.14,2.22,1.13,3.32,3.3,2.85l10.55-2.82a6.06,6.06,0,0,0,4.16-4.86q.17-1.83.34-3.68l.33-3.68q.15-1.85.3-3.69c.1-1.24.19-2.47.28-3.7m-3.39,34.17c.16-2.18-1.15-3.29-3.34-2.82l-10.65,2.8a6.35,6.35,0,0,0-4.29,4.82q-.26,1.82-.52,3.62c-.17,1.21-.35,2.42-.54,3.62s-.37,2.41-.56,3.61-.38,2.41-.58,3.6c-.25,2.18,1,3.25,3.21,2.78l10.83-2.78a6.45,6.45,0,0,0,4.46-4.77c.18-1.2.35-2.4.52-3.6s.34-2.41.51-3.61.32-2.42.49-3.63.31-2.42.47-3.63m-5.13,33.48c.28-2.13-1-3.2-3.26-2.73l-10.94,2.78a6.77,6.77,0,0,0-4.6,4.71c-.23,1.19-.48,2.37-.72,3.53s-.48,2.36-.74,3.53-.5,2.35-.76,3.53-.52,2.34-.78,3.5c-.37,2.13.82,3.15,3.1,2.69l11.14-2.77a6.9,6.9,0,0,0,4.77-4.67c.25-1.16.49-2.33.72-3.51s.47-2.35.7-3.53.46-2.34.68-3.53.44-2.36.66-3.54m-7,32.54c.39-2.06-.84-3.08-3.16-2.62L1123.2,1409a7.3,7.3,0,0,0-4.92,4.58c-.3,1.14-.61,2.29-.92,3.42s-.63,2.28-.94,3.41-.65,2.27-1,3.39-.65,2.25-1,3.37c-.49,2,.68,3,3,2.57l11.47-2.76a7.47,7.47,0,0,0,5.11-4.53q.47-1.68.93-3.37l.91-3.39c.3-1.14.59-2.28.88-3.42s.58-2.28.87-3.42m-8.92,31.28c.52-2-.67-2.93-3-2.46l-11.58,2.75a8,8,0,0,0-5.27,4.42c-.37,1.1-.75,2.18-1.14,3.27s-.77,2.17-1.17,3.25-.8,2.16-1.19,3.23l-1.22,3.21c-.63,1.92.47,2.83,2.88,2.36l11.82-2.74a8.33,8.33,0,0,0,5.47-4.32c.38-1.08.77-2.15,1.14-3.22s.76-2.14,1.13-3.23.74-2.16,1.1-3.25.72-2.17,1.08-3.27m-11,29.61c.66-1.84-.5-2.73-2.94-2.26l-11.93,2.74a9,9,0,0,0-5.63,4.2q-.68,1.55-1.37,3.07c-.46,1-.93,2-1.4,3s-.95,2-1.43,3-1,2-1.45,3c-.76,1.79.29,2.61,2.76,2.13l12.16-2.75a9.32,9.32,0,0,0,5.84-4.07c.47-1,.93-2,1.39-3l1.35-3c.45-1,.9-2,1.33-3s.88-2,1.31-3.07m-13.17,27.45c.81-1.7-.29-2.48-2.81-2l-12.29,2.75a10.39,10.39,0,0,0-6,3.95c-.53.93-1.07,1.86-1.61,2.78s-1.09,1.86-1.65,2.76-1.11,1.83-1.67,2.73-1.13,1.8-1.7,2.69c-.92,1.61.09,2.31,2.62,1.81l12.54-2.74a11,11,0,0,0,6.23-3.76c.55-.89,1.1-1.78,1.63-2.69s1.07-1.81,1.6-2.73,1.05-1.83,1.58-2.76,1-1.85,1.55-2.78m-15.48,24.64c1.19-1.85-.94-1.93-2.22-1.72l-.45.09-12.67,2.75a12.64,12.64,0,0,0-6.41,3.58c-.62.83-1.24,1.65-1.87,2.46s-1.26,1.62-1.9,2.41-1.29,1.59-1.93,2.36-1.3,1.56-2,2.33c-1.28,1.63.61,1.64,1.21,1.61a10.2,10.2,0,0,0,1.26-.19l12.92-2.76a13.76,13.76,0,0,0,6.65-3.39q1-1.15,1.89-2.31t1.86-2.36c.61-.8,1.23-1.61,1.83-2.42s1.21-1.62,1.81-2.44m-49.12,34.78-12.51,2.61c18.41-14.44,34.5-34.59,48.11-58.82,12.82-22.82,23.43-49.27,31.76-78.13a564.66,564.66,0,0,0,17.53-87.79,721.34,721.34,0,0,0,5.13-92.1q-.07-10.14-.41-20.18t-.93-19.8q-.58-9.77-1.42-19.43t-1.89-19.06c-1.59-14.15-3.59-28.12-6-41.79s-5.06-26.87-8.13-39.89-6.46-25.61-10.22-38-7.85-24.35-12.31-36c-6.77-17.77-13.64-33.73-20.56-48.32s-14-28-21-40.4-14.25-24.07-21.33-35.09-14.26-21.67-21.22-32c-8.26-12.28-16.35-24.29-24.09-36.57s-15.26-25.07-22.12-38.46a354.06,354.06,0,0,1-18.61-42.9,339.89,339.89,0,0,1-13.39-49.07q-1.68-8.64-3-16.71t-2.13-15.57c-.57-5-1-9.8-1.35-14.45s-.52-9.07-.62-13.35a177.84,177.84,0,0,1,3-38.19,100.26,100.26,0,0,1,9.37-27.37,71.38,71.38,0,0,1,14-18.59,72.53,72.53,0,0,1,16.88-11.88q81-41.73,162-83.46a29.9,29.9,0,0,0-10.23,8.6,44.51,44.51,0,0,0-7.32,15.76c-1.83,6.8-2.87,15.13-3,25.32a243.85,243.85,0,0,0,3,37.23q1,6.39,2.21,13.33t2.88,14.56q1.62,7.61,3.58,15.81t4.32,17.1c4.77,18.05,10.14,35,16,51s12.2,31.2,18.86,45.75,13.55,28.23,20.7,41.84c7.08,13.45,14.35,26.67,21.78,40.17,6.25,11.36,12.64,23,19.13,35.13s13,24.64,19.59,38.15,13.27,27.73,20.1,43.37,13.73,32.48,20.85,51.2q7,18.46,13.46,37.76t12.32,39.47q5.9,20.25,11.16,41.19c3.54,14.08,6.87,28.42,10,42.92q2.06,9.69,4,19.49t3.73,19.85q1.8,10.06,3.44,20.19t3.15,20.55c4.66,32.3,7.88,63.66,9.62,93.43a788.92,788.92,0,0,1,.56,88.62c-1.59,29.08-5.11,55.59-10.7,78.24-6,24.14-14.27,43.94-25.08,57.63l-15.61,3.27.36-.15c3.24-2.27,3.7-2.88,4.15-3.48,3.07-4.41,3.5-5.07,3.92-5.73l-18.84,2.15-5,1.87c-3.52,4-4,4.63-4.45,5.26-1.91,2.48-2.4,3.08-2.89,3.67l-10.44,3.35a103.53,103.53,0,0,0,10.21-13.87,146.69,146.69,0,0,0,8.77-16.44c2.67-5.81,5.13-12,7.41-18.61s4.27-13.3,6.13-20.44c-.76-1.61-1.76-3.75-2.51-5.36-47.72-7.6-109.39,22.76-156.1,33.34-6.65,2.31-8.22,3.37-13.26,7.77-5.87,10.84-9.36,17.69-13,24.19s-7.7,12.9-11.86,18.77a176.76,176.76,0,0,1-13.3,16.69,140.85,140.85,0,0,1-14.78,14.23l-12.3,2.58.37-.14c3.9-2.31,4.62-2.93,5.33-3.57,2.83-2.57,3.54-3.23,4.23-3.9s1.39-1.35,2.07-2l-15.58,1.57-4.79,1.78a40.7,40.7,0,0,0-4.17,3.42c-2.9,2.62-3.64,3.27-4.37,3.9s-1.48,1.26-2.23,1.87c-.28.09,0,.78-.07,1.11" transform="translate(270.93 -359.24)" fill="#4d2003"/>
    <path d="M1124.44,445.86q-81,41.72-162,83.46a72.55,72.55,0,0,0-16.89,11.88,71.21,71.21,0,0,0-14,18.58,100.09,100.09,0,0,0-9.37,27.37,177.46,177.46,0,0,0-3,38.19q.13,6.43.61,13.35t1.35,14.45q.87,7.51,2.13,15.58t3,16.71a340.39,340.39,0,0,0,13.38,49.07,353.82,353.82,0,0,0,18.61,42.9c6.86,13.39,14.3,26.05,22.12,38.46s15.82,24.3,24.08,36.57c7,10.34,14.07,20.89,21.23,32S1040,907,1047.1,919.54s14.08,25.73,21,40.4,13.79,30.55,20.56,48.32q6.69,17.52,12.31,36t10.22,38q4.61,19.54,8.13,39.89c2.37,13.68,4.36,27.65,6,41.8q1.06,9.46,1.9,19.06t1.42,19.43q.59,9.85.93,19.81t.41,20.18a721.49,721.49,0,0,1-5.13,92.1,565.07,565.07,0,0,1-17.53,87.8c-8.33,28.85-18.94,55.3-31.76,78.13-13.61,24.22-29.71,44.37-48.11,58.81l285.14-59.69c10.81-13.69,19.12-33.48,25.08-57.63,5.59-22.65,9.11-49.15,10.7-78.24a788.92,788.92,0,0,0-.56-88.62c-1.74-29.77-5-61.13-9.62-93.43q-1.5-10.32-3.15-20.55t-3.44-20.19q-1.79-10-3.73-19.85t-4-19.49c-3.09-14.5-6.42-28.84-10-42.92s-7.23-27.69-11.16-41.19-8-26.57-12.32-39.47-8.78-25.46-13.46-37.76c-7.13-18.72-14.07-35.64-20.85-51.2s-13.52-30-20.1-43.37-13.17-26.12-19.59-38.15-12.88-23.77-19.13-35.13c-7.43-13.5-14.71-26.73-21.78-40.17-7.15-13.61-14.08-27.4-20.7-41.84s-13-29.65-18.86-45.75-11.24-33-16-51q-2.35-8.87-4.32-17.1T1112,560.65q-1.61-7.57-2.88-14.56t-2.21-13.33a243.85,243.85,0,0,1-3-37.23c.08-10.18,1.13-18.51,3-25.32a44.51,44.51,0,0,1,7.32-15.76A29.9,29.9,0,0,1,1124.44,445.86Z" transform="translate(270.93 -359.24)" fill="none"/>
  </g>
  <path d="M-242.14,1311.49l-4.7,1.1-24.09-76c2-.64,3.82-1.34,5.68-1.78,14.65-3.5,27.71-10.43,40.53-18.12,37.67-22.61,75.54-44.9,113.29-67.38,33.49-19.94,66.89-40,100.4-59.93,30.38-18.06,60.85-36,91.78-54.24,5.69,9.53,11.46,19,17.08,28.64,4,6.85,3.83,6.75-2.87,10.69q-37.21,21.84-74.31,43.87-52.62,31.16-105.21,62.4-42.38,25.2-84.68,50.53c-12,7.15-24.08,14.18-36.11,21.29a9.54,9.54,0,0,0-3.53,3.27l346.18-109.7L149.62,1185l-7.23,2.65,2.67,8.42q34.9,110.09,69.79,220.19c2.28,7.21.15,11.76-6.8,14.67-1.38.58-2.85.94-4.28,1.39l-357,113.13c-10,3.18-14.48.9-17.63-9Zm97.76-36.15,1.46,1c16.09-5.1,32.21-10.12,48.23-15.41,1.6-.53,3.06-2.44,3.92-4.06,6.25-11.76,12.33-23.6,18.45-35.43,1.24-2.4,2.41-4.83,4.05-8.12-17,5.38-32.82,10.35-48.61,15.5a7,7,0,0,0-3.34,3.24c-6.61,12.1-13,24.29-19.63,36.4C-141.14,1270.86-142.85,1273.05-144.37,1275.35Zm58.93-96.08c-17-4.34-32.86-8.41-48.71-12.34a6.15,6.15,0,0,0-4.17.46c-14.5,8.44-28.93,17-43.44,25.59.43.45.62.82.88.89,15.69,4,31.36,8.08,47.09,11.93a7.54,7.54,0,0,0,5-1C-114.64,1196.59-100.59,1188.22-85.44,1179.27Zm117.67,2.19c-13.49,4.27-25.36,8.62-37.56,11.7-8,2-12.64,6.2-16,13.6-5.59,12.2-12.22,23.92-18.57,36.15a7.47,7.47,0,0,0,2,.12c14.45-4.54,28.91-9.06,43.31-13.77a6.93,6.93,0,0,0,3.48-3.17C16.47,1211.69,24,1197.23,32.23,1181.46ZM4.77,1125.64c-12.14-3.09-23.73-5.2-34.71-9.05s-20.36-3.28-30,3.76c-9,6.56-19,11.69-29.37,17.9,16.65,4.25,32.35,8.32,48.1,12.17a8.14,8.14,0,0,0,5.47-.86C-22.48,1141.86-9.29,1134,4.77,1125.64Zm.31-43.51c17,4.41,32.68,8.53,48.41,12.45a7.44,7.44,0,0,0,4.94-.94c8.93-5.08,17.76-10.34,26.59-15.58,4-2.36,7.87-4.83,12.6-7.74-13.35-3.41-25.73-6-37.68-9.82-9-2.9-16.38-2.42-24.31,3.21C26.22,1070.39,15.87,1075.72,5.08,1082.14Zm129.65,68-.95-.89c-12.3,3.9-24.51,8.1-36.93,11.55A17,17,0,0,0,85,1170.7c-6.34,13.08-13.37,25.82-20.8,40,11.5-3.64,21.42-7.62,31.72-9.83,10.92-2.33,17.46-8.06,21.84-18.26C122.56,1171.43,129,1161,134.72,1150.17Zm35.74,203.64-.83-1.51-337,106.79.25,1.81a31.28,31.28,0,0,0,5-.75q49.83-15.72,99.62-31.53l5.27-1.67,6.88,21.71c2.32,7.31,4.45,14.68,7,21.91,2.39,6.79,3.39,14.17,7.23,20.38l1.87-.61-20.26-63.95,114.31-36.22L80.06,1454l1.91-.26a22.52,22.52,0,0,0-.47-4.55q-8.59-27.43-17.33-54.82L62.47,1389l49.16-15.58q27.41-8.68,54.8-17.41A23.36,23.36,0,0,0,170.46,1353.8Zm-12.89-40.22c-1.83-4.84-4.71-1.93-6.66-1.32q-163.05,51.52-326,103.23c-1.27.4-2.75.56-3.73,1.33-.76.6-.9,2-1.65,3.89ZM133,1232.77-205.4,1340c.55.87,1,1.9,1.19,1.85q168-52.92,335.85-106C132.07,1235.67,132.21,1234.58,133,1232.77Zm11.69,38.44-337.72,107,.35,1.84a56.51,56.51,0,0,0,5.71-1.2q163.17-51.67,326.33-103.39a22.53,22.53,0,0,0,4.22-1.5C144.12,1273.68,144.19,1272.52,144.68,1271.21Zm-323.27-36.65c-17.38-4.44-33.42-8.55-49.46-12.62a3.46,3.46,0,0,0-2.3,0c-4.36,2.54-8.64,5.22-13.41,8.13l31.31,24.56Zm-11.32,45.66,17.09-33.4L-208.07,1258C-200.45,1264.58-190.67,1268.61-189.91,1280.22Zm-64-32.62,2.16-.52c.68-1.82,2.08-3.72,1.87-5.43-.31-2.55-2.51-4.19-5-2.61-1.4.87-2.95,3.14-2.74,4.53S-255.26,1246.28-253.92,1247.61Zm20.94,46.82c-3.45-.91-5.57-2.12-7.3-1.71-1.19.28-2.72,2.93-2.55,4.33a3.74,3.74,0,0,0,5.48,3.16C-235.86,1299.53-235.07,1297.3-233,1294.42Zm28.65-15.52c-1.34,3.52-3,5.67-2.51,7.25.38,1.36,3.11,2.06,4.8,3.05,1-1.82,2.71-3.62,2.73-5.45C-199.3,1282.55-201.72,1281.31-204.34,1278.9Z" transform="translate(270.93 -359.24)" fill="#4d2003"/>
</svg>
